<svg width="168" height="27" fill="none" xmlns="http://www.w3.org/2000/svg"><path d="M167.237 14.798l-9.204 11.19c-.296.358-.665.538-1.035.538-.369 0-.739-.18-1.035-.538-.591-.716-.591-1.835 0-2.551l6.691-8.147h-21.587c-.814 0-1.479-.805-1.479-1.79s.665-1.79 1.479-1.79h21.587l-6.691-8.147c-.591-.716-.591-1.835 0-2.551.592-.716 1.516-.716 2.107 0l9.204 11.19c.555.76.555 1.925-.037 2.596z" fill="#FF5722"/><rect x="76" y="11.307" width="88.714" height="4.475" rx="2.238" fill="#FF5722"/><path d="M.448 14.798l9.204 11.19c.296.358.666.538 1.036.538s.739-.18 1.034-.538c.592-.716.592-1.835 0-2.551l-6.69-8.147h21.587c.813 0 1.479-.805 1.479-1.79s-.666-1.79-1.479-1.79H5.032l6.69-8.147c.592-.716.592-1.835 0-2.551-.59-.716-1.515-.716-2.106 0L.41 12.202c-.554.76-.554 1.925.037 2.596z" fill="#9A9A9A"/><rect width="50" height="4.002" rx="2.001" transform="matrix(-1 0 0 1 52.685 11.52)" fill="#9A9A9A"/></svg>